#!OML:ASF F:\VICON\USERDATA\INSTALL\rory3\rory3.ASF
:FULLY-SPECIFIED
:DEGREES
76
root 1.11981 17.7841 -16.8212 5.99204 0.345203 0.10167
lowerback 6.23199 -0.596091 -1.13168
upperback 0.33075 -0.808232 1.99741
thorax -3.10912 -0.373366 2.77002
lowerneck -18.9972 -4.15069 -8.4384
upperneck 13.7143 -4.34675 5.4969
head 7.6459 -1.99619 2.66428
rclavicle 7.35503e-015 -1.11319e-014
rhumerus -31.5258 -8.31466 -80.4445
rradius 34.6184
rwrist 6.8592
rhand -13.0103 15.3663
rfingers 7.12502
rthumb 13.0832 -14.2033
lclavicle 7.35503e-015 -1.11319e-014
lhumerus -28.83 6.67492 86.1359
lradius 28.6239
lwrist -8.05735
lhand -17.2762 25.4323
lfingers 7.12502
lthumb 8.96887 55.2217
rfemur -10.3462 5.06419 20.7478
rtibia 21.922
rfoot -10.9177 -11.9856
rtoes -0.635618
lfemur -10.6893 -3.2953 -20.4632
ltibia 21.4618
lfoot -12.9943 3.88385
ltoes 0.917143
77
root 1.12126 17.7885 -16.8173 5.99139 0.313868 0.152312
lowerback 6.27996 -0.5794 -1.15997
upperback 0.308041 -0.788111 1.98972
thorax -3.16035 -0.362192 2.77737
lowerneck -18.9472 -4.19916 -8.48862
upperneck 13.7626 -4.40049 5.47185
head 7.65807 -2.02796 2.65779
rclavicle 1.31198e-014 -9.54166e-015
rhumerus -31.5826 -8.15202 -80.4813
rradius 34.5105
rwrist 6.0246
rhand -13.7108 16.9122
rfingers 7.12502
rthumb 12.4079 -12.6995
lclavicle 1.31198e-014 -9.54166e-015
lhumerus -28.9176 6.30906 86.3484
lradius 28.5349
lwrist -6.6803
lhand -17.7763 25.4934
lfingers 7.12502
lthumb 8.48624 55.3029
rfemur -10.3759 5.15982 20.6629
rtibia 22
rfoot -11.078 -11.8974
rtoes 0.978891
lfemur -10.6512 -3.27258 -20.5272
ltibia 21.3693
lfoot -12.9226 3.88224
ltoes 0.713555
78
root 1.122 17.7895 -16.8108 5.93935 0.183539 0.255314
lowerback 6.36255 -0.539487 -1.25745
upperback 0.302159 -0.743503 1.94791
thorax -3.21457 -0.338152 2.78654
lowerneck -18.9985 -4.20216 -8.57125
upperneck 13.9054 -4.39806 5.55632
head 7.71798 -2.02319 2.69993
rclavicle -4.67144e-015 7.95139e-015
rhumerus -31.7032 -8.09704 -80.5173
rradius 34.5258
rwrist 5.64057
rhand -13.8747 17.1475
rfingers 7.12502
rthumb 12.2499 -12.4738
lclavicle -4.67144e-015 7.95139e-015
lhumerus -28.9835 6.06378 86.4408
lradius 28.4948
lwrist -6.05497
lhand -18.5613 24.8298
lfingers 7.12502
lthumb 7.72863 54.6685
rfemur -10.3754 5.35014 20.5121
rtibia 22.0768
rfoot -11.185 -11.8765
rtoes 1.83858
lfemur -10.5822 -3.23372 -20.6722
ltibia 21.3182
lfoot -12.8521 4.02937
ltoes 0.0277885
79
root 1.12269 17.785 -16.8066 6.00125 0.0212725 0.20323
lowerback 6.3023 -0.519817 -1.21543
upperback 0.32665 -0.713304 1.97968
thorax -3.15731 -0.324454 2.79183
lowerneck -19.0114 -4.18929 -8.72051
upperneck 13.8303 -4.35081 5.63637
head 7.69712 -2.00039 2.75653
rclavicle -1.5207e-014 6.75868e-015
rhumerus -31.7366 -7.96481 -80.5345
rradius 34.6889
rwrist 5.5564
rhand -13.819 16.8026
rfingers 7.12502
rthumb 12.3036 -12.8155
lclavicle -1.5207e-014 6.75868e-015
lhumerus -28.9057 6.19143 86.4217
lradius 28.5486
lwrist -6.26889
lhand -17.851 25.0039
lfingers 7.12502
lthumb 8.41413 54.8163
rfemur -10.4846 5.42692 20.5638
rtibia 22.1179
rfoot -11.0488 -11.9179
rtoes 0.598511
lfemur -10.6082 -3.12819 -20.6316
ltibia 21.2903
lfoot -12.8394 4.12706
ltoes -0.0820769
80
root 1.12522 17.783 -16.8017 6.05653 -0.0351014 0.174802
lowerback 6.19209 -0.550457 -1.18966
upperback 0.424816 -0.751154 2.03829
thorax -2.9915 -0.346188 2.83838
lowerneck -19.1072 -4.13419 -8.8691
upperneck 13.651 -4.22512 5.6635
head 7.64829 -1.94322 2.80392
rclavicle -6.06293e-015 2.50469e-014
rhumerus -31.5446 -7.7708 -80.5537
rradius 34.7417
rwrist 5.48268
rhand -13.8985 16.5451
rfingers 7.12502
rthumb 12.2269 -13.0775
lclavicle -6.06293e-015 2.50469e-014
lhumerus -28.6958 6.629 86.3379
lradius 28.8183
lwrist -7.49221
lhand -15.7923 26.7088
lfingers 7.12502
lthumb 10.4005 56.4316
rfemur -10.5422 5.33991 20.6042
rtibia 22.1212
rfoot -10.9228 -11.9024
rtoes -0.470671
lfemur -10.615 -3.07681 -20.6078
ltibia 21.3458
lfoot -12.8954 4.11916
ltoes 0.11885
81
root 1.12597 17.7863 -16.7948 6.08001 -0.0854105 0.172772
lowerback 6.19216 -0.55996 -1.17311
upperback 0.450491 -0.762949 2.03773
thorax -2.96455 -0.352838 2.82915
lowerneck -19.2123 -4.07844 -8.88082
upperneck 13.7017 -4.13681 5.6576
head 7.67621 -1.90115 2.81447
rclavicle 3.18055e-015 0
rhumerus -31.4664 -7.72367 -80.5946
rradius 34.7024
rwrist 5.50143
rhand -14.0365 16.5793
rfingers 7.12502
rthumb 12.0939 -13.0512
lclavicle 3.18055e-015 0
lhumerus -28.6401 6.98605 86.1499
lradius 29.0695
lwrist -9.32641
lhand -13.6113 28.1462
lfingers 7.12502
lthumb 12.5039 57.7521
rfemur -10.5276 5.32911 20.6074
rtibia 22.088
rfoot -10.9418 -11.8516
rtoes -0.0659468
lfemur -10.6746 -3.02915 -20.6177
ltibia 21.4889
lfoot -12.9383 4.12868
ltoes 0.172289
